<?xml version="1.0" encoding="UTF-8"?>
<svg id="Layer_1" xmlns="http://www.w3.org/2000/svg" version="1.1" viewBox="0 0 400 173">
  <!-- Generator: Adobe Illustrator 29.1.0, SVG Export Plug-In . SVG Version: 2.1.0 Build 142)  -->
  <defs>
    <style>
      .st0 {
        fill: #231f20;
      }

      .st1 {
        fill: #fefdfd;
      }

      .st2 {
        fill: #0d0c0c;
      }
    </style>
  </defs>
  <g>
    <g>
      <path class="st0" d="M114.0090729,155.9773271c-.2996651-1.0435422-.6014686-1.8260451-.7399169-2.6364427-.2368159-1.3861133-1.0387471-1.9260855-2.3844314-2.2321518-8.9438148-2.0342527-17.8672561-4.1580176-26.7979401-6.250022-.8308073-.1946337-1.5744884-.4935396-2.1530348-1.1861349-1.2296235-1.4720233-2.503568-2.9072489-3.768849-4.3492249-2.6883111-3.063767-5.5948367-5.8475688-9.6278691-7.0618254-.9272122-.2791599-2.1779746-.9259376-2.8173855-.2660838-.6267049.6467411-.0334678,1.9007386.2589215,2.842637,2.0829575,6.7101025,6.9999062,10.0431967,13.6178181,11.2302249,6.6767917,1.197571,13.3416024,2.4329501,19.8594404,4.3476288,4.9074943,1.4416099,9.6792865,3.2453685,14.553247,5.5613949ZM37.4557242,34.4374305c0,.2392543-.0001629.4785104.0000293.7177647.0009941,1.2428085.0306447,1.2602501,1.1686766.6780641.8154081-.4171401,1.5920828-.9543979,2.4526853-1.2302321,2.3211941-.7439682,4.1298217-2.2051502,5.8039831-3.8842994,3.6162226-3.6269895,6.2057561-7.9778557,8.6933848-12.3958858.2399576-.4261685.8341065-.9185274.496986-1.3617641-.378871-.4981302-.7956368.2847923-1.250843.3010071-.1591332.0056685-.3203316.0170643-.475924.0487396-2.711896.5520847-5.3264278,1.3926953-7.6845793,2.8659673-5.2919548,3.306192-8.7553259,7.812356-9.2043987,14.2606385ZM26.3515301,68.6670872c.9335524-.8550219,1.7318787-1.5696513,2.512-2.3036165,3.023392-2.8445259,6.109613-5.6307364,8.4792586-9.0858977,1.5109875-2.2031551,2.5077241-4.612186,2.9478056-7.250741.1519435-.9109945.0989772-1.453057-1.1247253-1.1516106-1.2043286.2966655-2.392196.5844318-3.5088327,1.1363966-6.4567683,3.1916583-9.553037,11.3604224-9.3055061,18.6554692ZM30.8055557,50.6196944c4.3055854-2.0673421,8.436967-4.1451227,12.1556912-6.9423447,2.6041088-1.9588143,4.609856-4.3931207,5.8319181-7.4468957.2510086-.6272331.2404922-.9027029-.5332294-1.0225076-1.1590701-.1794728-2.3003152-.2047245-3.4557932-.0429843-7.8664443,1.1011255-12.8956054,9.3421835-13.9985867,15.4547324ZM26.3079048,86.9244155c.4392165-.1136071.5519681-.3919104.7016898-.6124986,2.6725997-3.9375319,5.180971-7.9744965,7.0175922-12.3796317,1.0859682-2.6046896,1.6850292-5.3328848,1.4363696-8.1806322-.1485747-1.7015254-.3820768-1.7954597-1.8617825-.9952535-2.6547993,1.4356978-4.605288,3.5412433-5.9468309,6.224752-2.5561279,5.1130471-2.557739,10.4432522-1.3470382,15.943264ZM30.9453222,104.7019869c1.5378615-4.0710826,2.966743-8.1212113,3.8632098-12.3331221.8022956-3.7694751.8969099-7.5045687-.4587342-11.1977249-.304623-.8298727-.5879899-.8705068-1.2005772-.3277817-.9933056.8800174-1.917625,1.8301012-2.6034936,2.9586089-4.2777117,7.0383821-3.1187872,13.9945223.3995952,20.9000199ZM39.7913344,120.8022267c.4199093-3.5607477.5596503-6.825108.6625052-10.0863641.1515334-4.8046489-.3317067-9.4819483-3.0837585-13.6551434-.5138151-.7791497-.7774968-.9751598-1.3454262-.0750962-.899376,1.4253416-1.7314722,2.8828611-2.1346477,4.5221431-1.8351639,7.461643.8475522,13.5719862,5.9013272,19.2944605ZM52.1227362,133.4717552c-.1813047-2.282172-.6038816-4.2267661-.9985089-6.1745817-.7354826-3.6301917-1.4471057-7.2626677-3.0755051-10.6424362-1.0051274-2.0861692-2.3410203-3.8843854-4.1174873-5.3681816-.572479-.4781572-.9052256-.4926683-1.1729644.3003262-.4735439,1.4025426-.8950278,2.8131095-.9524229,4.299168-.3060254,7.9233635,3.7964728,13.2774293,10.3168886,17.5857052ZM67.2876642,142.1192402c-.6766613-1.4561357-1.204757-2.6583339-1.7872214-3.8336111-1.7144637-3.4593821-3.1192183-7.0914773-5.5201896-10.1741923-1.6641595-2.1366946-3.6348826-3.9204583-6.1839507-4.9591903-.3360805-.1369552-.9013643-.5348838-.9233784.309727-.0269866,1.035042-.2108399,2.0551848-.1385545,3.1033175.3280871,4.757118,2.5972376,8.4750793,6.1504353,11.4745639,2.3714654,2.0019065,5.1143832,3.3087138,8.4028593,4.0793852ZM18.726482,61.0441012c-.9775982,3.311236-1.6308027,6.6344389-1.8517476,10.0433725-.0594268.9168883.3779984,1.6806812.4840646,2.5440349.437972,3.5649978,1.4852332,6.9332167,3.6264454,9.8753962.9550433,1.3122983,2.0487619,2.5025552,3.6449307,3.3599127-.1045887-.702084-.1755467-1.2492752-.2688007-1.7926446-.517642-3.0162068-.4975833-6.0327944-.0052069-9.0482947.1212165-.742374.3978257-1.4773057.1375302-2.2347582-1.5166223-4.4133242-3.5601251-8.5910183-5.7672156-12.7470189ZM28.8992361,105.0844965c.2042498-.3207165.0739313-.4902376-.0099744-.6621528-1.4696196-3.0109207-2.3142177-6.1836164-2.5766388-9.5274732-.0701222-.8935255-.0549885-1.8283806-.6255771-2.6437496-2.4085601-3.4417813-5.0698713-6.6782469-7.8725262-9.8021377-.2046411-.2280927-.401881-.587159-.7680571-.4296086-.3089829.1329357-.1449199.4974712-.1748239.7586276-.2667791,2.32982.3026608,4.5801364.7224858,6.8330811.8959212,4.8078557,2.7109902,9.183145,6.3825281,12.5852293,1.4270245,1.3222921,3.0087567,2.426434,4.9225836,2.8881838ZM50.8998648,134.6264005c-1.8850141-1.2284237-3.364295-2.4294285-4.7149793-3.7903779-1.358297-1.3686077-2.4735074-2.9192927-3.5340526-4.517472-.3230632-.4868258-.8397894-.7174298-1.3514167-.9508379-3.0869094-1.4082021-6.2767232-2.5374127-9.5287857-3.4925409-.7734891-.2271776-1.5172563-.6116127-2.3938548-.6215333,2.0266655,5.0613612,6.526128,9.9911924,11.3118419,12.3215103,3.1372961,1.5276444,6.4244558,1.9684035,10.2112471,1.0512517ZM58.4317738,148.2820051c8.366561,6.0739995,19.5570803,6.0065103,24.7574069-.2337156-.3552275-.018494-.660678-.0346891-.9661579-.0502545-2.9734649-.1515103-5.8922938-.6552852-8.5352219-2.0463331-1.3449593-.7078972-2.6053593-.8167966-4.0001394-.4945499-.310035.0716039-.6256613.1191934-.9389405.1765936-3.483633.6383873-6.9113264,1.4887015-10.3169471,2.6482596ZM66.075247,143.6836896c-.2200124-.1180366-.3142752-.1896404-.42053-.2225431-3.4879464-1.0802959-6.5682264-2.8577997-9.2138605-5.3789002-.3623898-.3453166-.795461-.5329876-1.2853946-.574881-3.9734128-.3397743-7.9346541-.8798344-11.936965-.7471695-.2910272.0096497-.633847-.1503388-.8777172.1614162,5.8920082,7.7197244,16.7357365,11.4224937,23.7344673,6.7620776ZM29.3215054,49.4482976c.5701245-1.7413724,1.0750701-3.2832717,1.789066-4.7461925.7377584-1.5116049,1.5024447-3.0237296,2.6282594-4.2701732,1.2113828-1.3411796,1.8168664-2.8062054,1.8718979-4.6257857.0540703-1.7877337.4525423-3.5626329.5650659-5.3516388.1383422-2.1995365.4755725-4.4010352.2495494-6.6985818-7.2651249,6.3667668-11.1997934,17.5039259-7.1038386,25.6923719ZM21.0737304,102.7014934c-.2612869.3674787-.176891.7000413-.0973816.9810901,1.5836385,5.5977093,3.7463242,10.8605059,8.5251917,14.5961485,2.4944596,1.9499169,5.2595672,3.1607471,8.4873765,3.2496735-.0114519-.4543112-.2916368-.6491132-.4920592-.8854499-1.8995473-2.2398979-3.5288511-4.6777021-4.3659822-7.4905774-.5957765-2.0018919-1.7617123-3.3781944-3.3671666-4.5775812-2.8054933-2.0958848-5.6595076-4.108876-8.6899785-5.8733037ZM24.6873954,67.9514768c.1694802-4.3441657,1.0267908-8.2383912,2.8588971-11.8888707.1861244-.3708612.1466341-.7650046.1204402-1.1704414-.2036392-3.1520528-.8991829-6.2293975-1.4037989-9.3351879-.2427341-1.4939675-.3630965-3.0236619-1.031832-4.6046706-3.3810541,5.9177541-5.3603311,11.9560469-4.2926944,18.6776331.4751885,2.9916763,1.4472283,5.7890374,3.7489881,8.3215374Z"/>
      <path class="st0" d="M114.0090729,155.9773271c-4.8739606-2.3160264-9.6457528-4.119785-14.553247-5.5613949-6.5178379-1.9146787-13.1826486-3.1500577-19.8594404-4.3476288-6.6179118-1.1870281-11.5348606-4.5201224-13.6178181-11.2302249-.2923893-.9418984-.8856264-2.1958959-.2589215-2.842637.639411-.6598538,1.8901734-.0130761,2.8173855.2660838,4.0330324,1.2142567,6.939558,3.9980584,9.6278691,7.0618254,1.265281,1.441976,2.5392255,2.8772016,3.768849,4.3492249.5785464.6925954,1.3222275.9915013,2.1530348,1.1861349,8.930684,2.0920044,17.8541253,4.2157693,26.7979401,6.250022,1.3456843.3060663,2.1476155.8460385,2.3844314,2.2321518.1384484.8103977.4402518,1.5929005.7399169,2.6364427Z"/>
      <path class="st0" d="M37.4557242,34.4374305c.4490728-6.4482826,3.9124439-10.9544466,9.2043987-14.2606385,2.3581515-1.473272,4.9726833-2.3138826,7.6845793-2.8659673.1555924-.0316754.3167908-.0430711.475924-.0487396.4552062-.0162148.871972-.7991373,1.250843-.3010071.3371205.4432368-.2570284.9355956-.496986,1.3617641-2.4876287,4.4180301-5.0771622,8.7688963-8.6933848,12.3958858-1.6741613,1.6791492-3.482789,3.1403312-5.8039831,3.8842994-.8606024.2758341-1.6372772.813092-2.4526853,1.2302321-1.1380319.5821859-1.1676824.5647444-1.1686766-.6780641-.0001922-.2392543-.0000293-.4785104-.0000293-.7177647Z"/>
      <path class="st0" d="M26.3515301,68.6670872c-.2475309-7.2950468,2.8487378-15.463811,9.3055061-18.6554692,1.1166367-.5519648,2.3045041-.8397311,3.5088327-1.1363966,1.2237026-.3014464,1.2766688.2406161,1.1247253,1.1516106-.4400816,2.638555-1.4368182,5.0475859-2.9478056,7.250741-2.3696455,3.4551612-5.4558666,6.2413717-8.4792586,9.0858977-.7801213.7339653-1.5784476,1.4485946-2.512,2.3036165Z"/>
      <path class="st0" d="M30.8055557,50.6196944c1.1029813-6.1125488,6.1321425-14.3536069,13.9985867-15.4547324,1.155478-.1617402,2.2967231-.1364885,3.4557932.0429843.7737216.1198047.784238.3952746.5332294,1.0225076-1.2220621,3.0537751-3.2278093,5.4880815-5.8319181,7.4468957-3.7187242,2.797222-7.8501058,4.8750026-12.1556912,6.9423447Z"/>
      <path class="st0" d="M26.3079048,86.9244155c-1.2107008-5.5000118-1.2090897-10.830217,1.3470382-15.943264,1.3415429-2.6835087,3.2920316-4.7890542,5.9468309-6.224752,1.4797057-.8002062,1.7132077-.7062719,1.8617825.9952535.2486596,2.8477474-.3504014,5.5759426-1.4363696,8.1806322-1.8366212,4.4051352-4.3449925,8.4420998-7.0175922,12.3796317-.1497218.2205882-.2624733.4988915-.7016898.6124986Z"/>
      <path class="st0" d="M30.9453222,104.7019869c-3.5183824-6.9054976-4.677307-13.8616378-.3995952-20.9000199.6858686-1.1285077,1.610188-2.0785915,2.6034936-2.9586089.6125873-.5427251.8959542-.502091,1.2005772.3277817,1.3556441,3.6931562,1.2610298,7.4282498.4587342,11.1977249-.8964668,4.2119109-2.3253483,8.2620395-3.8632098,12.3331221Z"/>
      <path class="st0" d="M39.7913344,120.8022267c-5.053775-5.7224743-7.736491-11.8328176-5.9013272-19.2944605.4031754-1.639282,1.2352716-3.0968014,2.1346477-4.5221431.5679294-.9000636.831611-.7040535,1.3454262.0750962,2.7520519,4.173195,3.2352919,8.8504945,3.0837585,13.6551434-.1028549,3.2612561-.2425959,6.5256164-.6625052,10.0863641Z"/>
      <path class="st0" d="M52.1227362,133.4717552c-6.5204158-4.3082759-10.622914-9.6623418-10.3168886-17.5857052.0573951-1.4860585.478879-2.8966254.9524229-4.299168.2677388-.7929945.6004854-.7784834,1.1729644-.3003262,1.776467,1.4837962,3.11236,3.2820124,4.1174873,5.3681816,1.6283994,3.3797685,2.3400225,7.0122445,3.0755051,10.6424362.3946272,1.9478156.8172041,3.8924097.9985089,6.1745817Z"/>
      <path class="st0" d="M67.2876642,142.1192402c-3.2884761-.7706714-6.0313939-2.0774786-8.4028593-4.0793852-3.5531977-2.9994846-5.8223483-6.717446-6.1504353-11.4745639-.0722853-1.0481327.1115679-2.0682756.1385545-3.1033175.0220141-.8446108.5872978-.4466822.9233784-.309727,2.5490682,1.038732,4.5197913,2.8224957,6.1839507,4.9591903,2.4009713,3.082715,3.8057259,6.7148102,5.5201896,10.1741923.5824644,1.1752772,1.1105601,2.3774754,1.7872214,3.8336111Z"/>
      <path class="st0" d="M18.726482,61.0441012c2.2070905,4.1560006,4.2505933,8.3336946,5.7672156,12.7470189.2602955.7574525-.0163137,1.4923842-.1375302,2.2347582-.4923764,3.0155003-.5124351,6.0320878.0052069,9.0482947.093254.5433694.164212,1.0905606.2688007,1.7926446-1.5961688-.8573575-2.6898874-2.0476144-3.6449307-3.3599127-2.1412122-2.9421795-3.1884734-6.3103985-3.6264454-9.8753962-.1060662-.8633538-.5434914-1.6271467-.4840646-2.5440349.2209449-3.4089335.8741494-6.7321365,1.8517476-10.0433725Z"/>
      <path class="st0" d="M28.8992361,105.0844965c-1.9138269-.4617498-3.4955591-1.5658917-4.9225836-2.8881838-3.6715379-3.4020843-5.4866069-7.7773736-6.3825281-12.5852293-.419825-2.2529447-.9892649-4.503261-.7224858-6.8330811.029904-.2611564-.134159-.6256919.1748239-.7586276.3661761-.1575505.563416.2015158.7680571.4296086,2.8026549,3.1238908,5.4639661,6.3603564,7.8725262,9.8021377.5705886.8153689.5554549,1.7502241.6255771,2.6437496.2624211,3.3438568,1.1070193,6.5165524,2.5766388,9.5274732.0839057.1719152.2142242.3414362.0099744.6621528Z"/>
      <path class="st0" d="M50.8998648,134.6264005c-3.7867913.9171518-7.073951.4763927-10.2112471-1.0512517-4.7857139-2.3303179-9.2851765-7.2601491-11.3118419-12.3215103.8765985.0099206,1.6203657.3943557,2.3938548.6215333,3.2520625.9551283,6.4418763,2.0843388,9.5287857,3.4925409.5116273.2334081,1.0283534.4640121,1.3514167.9508379,1.0605451,1.5981793,2.1757556,3.1488643,3.5340526,4.517472,1.3506843,1.3609494,2.8299653,2.5619542,4.7149793,3.7903779Z"/>
      <path class="st0" d="M58.4317738,148.2820051c3.4056208-1.159558,6.8333142-2.0098723,10.3169471-2.6482596.3132792-.0574002.6289056-.1049897.9389405-.1765936,1.3947802-.3222467,2.6551802-.2133473,4.0001394.4945499,2.6429282,1.3910479,5.561757,1.8948229,8.5352219,2.0463331.3054798.0155654.6109304.0317605.9661579.0502545-5.2003266,6.2402259-16.3908459,6.3077151-24.7574069.2337156Z"/>
      <path class="st0" d="M66.075247,143.6836896c-6.9987308,4.6604162-17.8424591.9576468-23.7344673-6.7620776.2438701-.311755.58669-.1517665.8777172-.1614162,4.0023108-.1326648,7.9635522.4073953,11.936965.7471695.4899336.0418934.9230049.2295643,1.2853946.574881,2.6456341,2.5211005,5.7259141,4.2986043,9.2138605,5.3789002.1062548.0329026.2005176.1045065.42053.2225431Z"/>
      <path class="st0" d="M29.3215054,49.4482976c-4.0959548-8.188446-.1612863-19.3256051,7.1038386-25.6923719.2260231,2.2975466-.1112072,4.4990452-.2495494,6.6985818-.1125236,1.7890058-.5109956,3.563905-.5650659,5.3516388-.0550315,1.8195802-.6605151,3.284606-1.8718979,4.6257857-1.1258147,1.2464436-1.8905011,2.7585683-2.6282594,4.2701732-.7139958,1.4629209-1.2189414,3.0048201-1.789066,4.7461925Z"/>
      <path class="st0" d="M21.0737304,102.7014934c3.0304709,1.7644277,5.8844852,3.7774189,8.6899785,5.8733037,1.6054544,1.1993868,2.7713902,2.5756893,3.3671666,4.5775812.837131,2.8128753,2.4664349,5.2506795,4.3659822,7.4905774.2004224.2363367.4806073.4311388.4920592.8854499-3.2278093-.0889264-5.9929169-1.2997567-8.4873765-3.2496735-4.7788675-3.7356427-6.9415531-8.9984392-8.5251917-14.5961485-.0795094-.2810488-.1639053-.6136115.0973816-.9810901Z"/>
      <path class="st0" d="M24.6873954,67.9514768c-2.3017597-2.5325-3.2737996-5.3298611-3.7489881-8.3215374-1.0676367-6.7215862.9116404-12.759879,4.2926944-18.6776331.6687356,1.5810087.7890979,3.1107031,1.031832,4.6046706.5046161,3.1057904,1.2001597,6.183135,1.4037989,9.3351879.0261939.4054368.0656842.7995802-.1204402,1.1704414-1.8321063,3.6504795-2.6894169,7.5447049-2.8588971,11.8888707Z"/>
    </g>
    <g>
      <path class="st0" d="M285.9909271,156.2045195c.2996651-1.0435422.6014686-1.8260451.7399169-2.6364427.2368159-1.3861133,1.0387471-1.9260855,2.3844314-2.2321518,8.9438148-2.0342527,17.8672561-4.1580176,26.7979401-6.250022.8308073-.1946337,1.5744884-.4935396,2.1530348-1.1861349,1.2296235-1.4720233,2.503568-2.9072489,3.768849-4.3492249,2.6883111-3.063767,5.5948367-5.8475688,9.6278691-7.0618254.9272122-.2791599,2.1779746-.9259376,2.8173855-.2660838.6267049.6467411.0334678,1.9007386-.2589215,2.842637-2.0829575,6.7101025-6.9999062,10.0431967-13.6178181,11.2302249-6.6767917,1.197571-13.3416024,2.4329501-19.8594404,4.3476288-4.9074943,1.4416099-9.6792865,3.2453685-14.553247,5.5613949ZM362.5442758,34.6646229c0,.2392543.0001629.4785104-.0000293.7177647-.0009941,1.2428085-.0306447,1.2602501-1.1686766.6780641-.8154081-.4171401-1.5920828-.9543979-2.4526853-1.2302321-2.3211941-.7439682-4.1298217-2.2051502-5.8039831-3.8842994-3.6162226-3.6269895-6.2057561-7.9778557-8.6933848-12.3958858-.2399576-.4261685-.8341065-.9185274-.496986-1.3617641.378871-.4981302.7956368.2847923,1.250843.3010071.1591332.0056685.3203316.0170643.475924.0487396,2.711896.5520847,5.3264278,1.3926953,7.6845793,2.8659673,5.2919548,3.306192,8.7553259,7.812356,9.2043987,14.2606385ZM373.6484699,68.8942795c-.9335524-.8550219-1.7318787-1.5696513-2.512-2.3036165-3.023392-2.8445259-6.109613-5.6307364-8.4792586-9.0858977-1.5109875-2.2031551-2.5077241-4.612186-2.9478056-7.250741-.1519435-.9109945-.0989772-1.453057,1.1247253-1.1516106,1.2043286.2966655,2.392196.5844318,3.5088327,1.1363966,6.4567683,3.1916583,9.553037,11.3604224,9.3055061,18.6554692ZM369.1944443,50.8468868c-4.3055854-2.0673421-8.436967-4.1451227-12.1556912-6.9423447-2.6041088-1.9588143-4.609856-4.3931207-5.8319181-7.4468957-.2510086-.6272331-.2404922-.9027029.5332294-1.0225076,1.1590701-.1794728,2.3003152-.2047245,3.4557932-.0429843,7.8664443,1.1011255,12.8956054,9.3421835,13.9985867,15.4547324ZM373.6920952,87.1516078c-.4392165-.1136071-.5519681-.3919104-.7016898-.6124986-2.6725997-3.9375319-5.180971-7.9744965-7.0175922-12.3796317-1.0859682-2.6046896-1.6850292-5.3328848-1.4363696-8.1806322.1485747-1.7015254.3820768-1.7954597,1.8617825-.9952535,2.6547993,1.4356978,4.605288,3.5412433,5.9468309,6.224752,2.5561279,5.1130471,2.557739,10.4432522,1.3470382,15.943264ZM369.0546778,104.9291792c-1.5378615-4.0710826-2.966743-8.1212113-3.8632098-12.3331221-.8022956-3.7694751-.8969099-7.5045687.4587342-11.1977249.304623-.8298727.5879899-.8705068,1.2005772-.3277817.9933056.8800174,1.917625,1.8301012,2.6034936,2.9586089,4.2777117,7.0383821,3.1187872,13.9945223-.3995952,20.9000199ZM360.2086656,121.029419c-.4199093-3.5607477-.5596503-6.825108-.6625052-10.0863641-.1515334-4.8046489.3317067-9.4819483,3.0837585-13.6551434.5138151-.7791497.7774968-.9751598,1.3454262-.0750962.899376,1.4253416,1.7314722,2.8828611,2.1346477,4.5221431,1.8351639,7.461643-.8475522,13.5719862-5.9013272,19.2944605ZM347.8772638,133.6989475c.1813047-2.282172.6038816-4.2267661.9985089-6.1745817.7354826-3.6301917,1.4471057-7.2626677,3.0755051-10.6424362,1.0051274-2.0861692,2.3410203-3.8843854,4.1174873-5.3681816.572479-.4781572.9052256-.4926683,1.1729644.3003262.4735439,1.4025426.8950278,2.8131095.9524229,4.299168.3060254,7.9233635-3.7964728,13.2774293-10.3168886,17.5857052ZM332.7123358,142.3464326c.6766613-1.4561357,1.204757-2.6583339,1.7872214-3.8336111,1.7144637-3.4593821,3.1192183-7.0914773,5.5201896-10.1741923,1.6641595-2.1366946,3.6348826-3.9204583,6.1839507-4.9591903.3360805-.1369552.9013643-.5348838.9233784.309727.0269866,1.035042.2108399,2.0551848.1385545,3.1033175-.3280871,4.757118-2.5972376,8.4750793-6.1504353,11.4745639-2.3714654,2.0019065-5.1143832,3.3087138-8.4028593,4.0793852ZM381.273518,61.2712936c.9775982,3.311236,1.6308027,6.6344389,1.8517476,10.0433725.0594268.9168883-.3779984,1.6806812-.4840646,2.5440349-.437972,3.5649978-1.4852332,6.9332167-3.6264454,9.8753962-.9550433,1.3122983-2.0487619,2.5025552-3.6449307,3.3599127.1045887-.702084.1755467-1.2492752.2688007-1.7926446.517642-3.0162068.4975833-6.0327944.0052069-9.0482947-.1212165-.742374-.3978257-1.4773057-.1375302-2.2347582,1.5166223-4.4133242,3.5601251-8.5910183,5.7672156-12.7470189ZM371.1007639,105.3116888c-.2042498-.3207165-.0739313-.4902376.0099744-.6621528,1.4696196-3.0109207,2.3142177-6.1836164,2.5766388-9.5274732.0701222-.8935255.0549885-1.8283806.6255771-2.6437496,2.4085601-3.4417813,5.0698713-6.6782469,7.8725262-9.8021377.2046411-.2280927.401881-.587159.7680571-.4296086.3089829.1329357.1449199.4974712.1748239.7586276.2667791,2.32982-.3026608,4.5801364-.7224858,6.8330811-.8959212,4.8078557-2.7109902,9.183145-6.3825281,12.5852293-1.4270245,1.3222921-3.0087567,2.426434-4.9225836,2.8881838ZM349.1001352,134.8535929c1.8850141-1.2284237,3.364295-2.4294285,4.7149793-3.7903779,1.358297-1.3686077,2.4735074-2.9192927,3.5340526-4.517472.3230632-.4868258.8397894-.7174298,1.3514167-.9508379,3.0869094-1.4082021,6.2767232-2.5374127,9.5287857-3.4925409.7734891-.2271776,1.5172563-.6116127,2.3938548-.6215333-2.0266655,5.0613612-6.526128,9.9911924-11.3118419,12.3215103-3.1372961,1.5276444-6.4244558,1.9684035-10.2112471,1.0512517ZM341.5682262,148.5091975c-8.366561,6.0739995-19.5570803,6.0065103-24.7574069-.2337156.3552275-.018494.660678-.0346891.9661579-.0502545,2.9734649-.1515103,5.8922938-.6552852,8.5352219-2.0463331,1.3449593-.7078972,2.6053593-.8167966,4.0001394-.4945499.310035.0716039.6256613.1191934.9389405.1765936,3.483633.6383873,6.9113264,1.4887015,10.3169471,2.6482596ZM333.924753,143.9108819c.2200124-.1180366.3142752-.1896404.42053-.2225431,3.4879464-1.0802959,6.5682264-2.8577997,9.2138605-5.3789002.3623898-.3453166.795461-.5329876,1.2853946-.574881,3.9734128-.3397743,7.9346541-.8798344,11.936965-.7471695.2910272.0096497.633847-.1503388.8777172.1614162-5.8920082,7.7197244-16.7357365,11.4224937-23.7344673,6.7620776ZM370.6784946,49.6754899c-.5701245-1.7413724-1.0750701-3.2832717-1.789066-4.7461925-.7377584-1.5116049-1.5024447-3.0237296-2.6282594-4.2701732-1.2113828-1.3411796-1.8168664-2.8062054-1.8718979-4.6257857-.0540703-1.7877337-.4525423-3.5626329-.5650659-5.3516388-.1383422-2.1995365-.4755725-4.4010352-.2495494-6.6985818,7.2651249,6.3667668,11.1997934,17.5039259,7.1038386,25.6923719ZM378.9262696,102.9286857c.2612869.3674787.176891.7000413.0973816.9810901-1.5836385,5.5977093-3.7463242,10.8605059-8.5251917,14.5961485-2.4944596,1.9499169-5.2595672,3.1607471-8.4873765,3.2496735.0114519-.4543112.2916368-.6491132.4920592-.8854499,1.8995473-2.2398979,3.5288511-4.6777021,4.3659822-7.4905774.5957765-2.0018919,1.7617123-3.3781944,3.3671666-4.5775812,2.8054933-2.0958848,5.6595076-4.108876,8.6899785-5.8733037ZM375.3126046,68.1786692c-.1694802-4.3441657-1.0267908-8.2383912-2.8588971-11.8888707-.1861244-.3708612-.1466341-.7650046-.1204402-1.1704414.2036392-3.1520528.8991829-6.2293975,1.4037989-9.3351879.2427341-1.4939675.3630965-3.0236619,1.031832-4.6046706,3.3810541,5.9177541,5.3603311,11.9560469,4.2926944,18.6776331-.4751885,2.9916763-1.4472283,5.7890374-3.7489881,8.3215374Z"/>
      <path class="st0" d="M285.9909271,156.2045195c4.8739606-2.3160264,9.6457528-4.119785,14.553247-5.5613949,6.5178379-1.9146787,13.1826486-3.1500577,19.8594404-4.3476288,6.6179118-1.1870281,11.5348606-4.5201224,13.6178181-11.2302249.2923893-.9418984.8856264-2.1958959.2589215-2.842637-.639411-.6598538-1.8901734-.0130761-2.8173855.2660838-4.0330324,1.2142567-6.939558,3.9980584-9.6278691,7.0618254-1.265281,1.441976-2.5392255,2.8772016-3.768849,4.3492249-.5785464.6925954-1.3222275.9915013-2.1530348,1.1861349-8.930684,2.0920044-17.8541253,4.2157693-26.7979401,6.250022-1.3456843.3060663-2.1476155.8460385-2.3844314,2.2321518-.1384484.8103977-.4402518,1.5929005-.7399169,2.6364427Z"/>
      <path class="st0" d="M362.5442758,34.6646229c-.4490728-6.4482826-3.9124439-10.9544466-9.2043987-14.2606385-2.3581515-1.473272-4.9726833-2.3138826-7.6845793-2.8659673-.1555924-.0316754-.3167908-.0430711-.475924-.0487396-.4552062-.0162148-.871972-.7991373-1.250843-.3010071-.3371205.4432368.2570284.9355956.496986,1.3617641,2.4876287,4.4180301,5.0771622,8.7688963,8.6933848,12.3958858,1.6741613,1.6791492,3.482789,3.1403312,5.8039831,3.8842994.8606024.2758341,1.6372772.813092,2.4526853,1.2302321,1.1380319.5821859,1.1676824.5647444,1.1686766-.6780641.0001922-.2392543.0000293-.4785104.0000293-.7177647Z"/>
      <path class="st0" d="M373.6484699,68.8942795c.2475309-7.2950468-2.8487378-15.463811-9.3055061-18.6554692-1.1166367-.5519648-2.3045041-.8397311-3.5088327-1.1363966-1.2237026-.3014464-1.2766688.2406161-1.1247253,1.1516106.4400816,2.638555,1.4368182,5.0475859,2.9478056,7.250741,2.3696455,3.4551612,5.4558666,6.2413717,8.4792586,9.0858977.7801213.7339653,1.5784476,1.4485946,2.512,2.3036165Z"/>
      <path class="st0" d="M369.1944443,50.8468868c-1.1029813-6.1125488-6.1321425-14.3536069-13.9985867-15.4547324-1.155478-.1617402-2.2967231-.1364885-3.4557932.0429843-.7737216.1198047-.784238.3952746-.5332294,1.0225076,1.2220621,3.0537751,3.2278093,5.4880815,5.8319181,7.4468957,3.7187242,2.797222,7.8501058,4.8750026,12.1556912,6.9423447Z"/>
      <path class="st0" d="M373.6920952,87.1516078c1.2107008-5.5000118,1.2090897-10.830217-1.3470382-15.943264-1.3415429-2.6835087-3.2920316-4.7890542-5.9468309-6.224752-1.4797057-.8002062-1.7132077-.7062719-1.8617825.9952535-.2486596,2.8477474.3504014,5.5759426,1.4363696,8.1806322,1.8366212,4.4051352,4.3449925,8.4420998,7.0175922,12.3796317.1497218.2205882.2624733.4988915.7016898.6124986Z"/>
      <path class="st0" d="M369.0546778,104.9291792c3.5183824-6.9054976,4.677307-13.8616378.3995952-20.9000199-.6858686-1.1285077-1.610188-2.0785915-2.6034936-2.9586089-.6125873-.5427251-.8959542-.502091-1.2005772.3277817-1.3556441,3.6931562-1.2610298,7.4282498-.4587342,11.1977249.8964668,4.2119109,2.3253483,8.2620395,3.8632098,12.3331221Z"/>
      <path class="st0" d="M360.2086656,121.029419c5.053775-5.7224743,7.736491-11.8328176,5.9013272-19.2944605-.4031754-1.639282-1.2352716-3.0968014-2.1346477-4.5221431-.5679294-.9000636-.831611-.7040535-1.3454262.0750962-2.7520519,4.173195-3.2352919,8.8504945-3.0837585,13.6551434.1028549,3.2612561.2425959,6.5256164.6625052,10.0863641Z"/>
      <path class="st0" d="M347.8772638,133.6989475c6.5204158-4.3082759,10.622914-9.6623418,10.3168886-17.5857052-.0573951-1.4860585-.478879-2.8966254-.9524229-4.299168-.2677388-.7929945-.6004854-.7784834-1.1729644-.3003262-1.776467,1.4837962-3.11236,3.2820124-4.1174873,5.3681816-1.6283994,3.3797685-2.3400225,7.0122445-3.0755051,10.6424362-.3946272,1.9478156-.8172041,3.8924097-.9985089,6.1745817Z"/>
      <path class="st0" d="M332.7123358,142.3464326c3.2884761-.7706714,6.0313939-2.0774786,8.4028593-4.0793852,3.5531977-2.9994846,5.8223483-6.717446,6.1504353-11.4745639.0722853-1.0481327-.1115679-2.0682756-.1385545-3.1033175-.0220141-.8446108-.5872978-.4466822-.9233784-.309727-2.5490682,1.038732-4.5197913,2.8224957-6.1839507,4.9591903-2.4009713,3.082715-3.8057259,6.7148102-5.5201896,10.1741923-.5824644,1.1752772-1.1105601,2.3774754-1.7872214,3.8336111Z"/>
      <path class="st0" d="M381.273518,61.2712936c-2.2070905,4.1560006-4.2505933,8.3336946-5.7672156,12.7470189-.2602955.7574525.0163137,1.4923842.1375302,2.2347582.4923764,3.0155003.5124351,6.0320878-.0052069,9.0482947-.093254.5433694-.164212,1.0905606-.2688007,1.7926446,1.5961688-.8573575,2.6898874-2.0476144,3.6449307-3.3599127,2.1412122-2.9421795,3.1884734-6.3103985,3.6264454-9.8753962.1060662-.8633538.5434914-1.6271467.4840646-2.5440349-.2209449-3.4089335-.8741494-6.7321365-1.8517476-10.0433725Z"/>
      <path class="st0" d="M371.1007639,105.3116888c1.9138269-.4617498,3.4955591-1.5658917,4.9225836-2.8881838,3.6715379-3.4020843,5.4866069-7.7773736,6.3825281-12.5852293.419825-2.2529447.9892649-4.503261.7224858-6.8330811-.029904-.2611564.134159-.6256919-.1748239-.7586276-.3661761-.1575505-.563416.2015158-.7680571.4296086-2.8026549,3.1238908-5.4639661,6.3603564-7.8725262,9.8021377-.5705886.8153689-.5554549,1.7502241-.6255771,2.6437496-.2624211,3.3438568-1.1070193,6.5165524-2.5766388,9.5274732-.0839057.1719152-.2142242.3414362-.0099744.6621528Z"/>
      <path class="st0" d="M349.1001352,134.8535929c3.7867913.9171518,7.073951.4763927,10.2112471-1.0512517,4.7857139-2.3303179,9.2851765-7.2601491,11.3118419-12.3215103-.8765985.0099206-1.6203657.3943557-2.3938548.6215333-3.2520625.9551283-6.4418763,2.0843388-9.5287857,3.4925409-.5116273.2334081-1.0283534.4640121-1.3514167.9508379-1.0605451,1.5981793-2.1757556,3.1488643-3.5340526,4.517472-1.3506843,1.3609494-2.8299653,2.5619542-4.7149793,3.7903779Z"/>
      <path class="st0" d="M341.5682262,148.5091975c-3.4056208-1.159558-6.8333142-2.0098723-10.3169471-2.6482596-.3132792-.0574002-.6289056-.1049897-.9389405-.1765936-1.3947802-.3222467-2.6551802-.2133473-4.0001394.4945499-2.6429282,1.3910479-5.561757,1.8948229-8.5352219,2.0463331-.3054798.0155654-.6109304.0317605-.9661579.0502545,5.2003266,6.2402259,16.3908459,6.3077151,24.7574069.2337156Z"/>
      <path class="st0" d="M333.924753,143.9108819c6.9987308,4.6604162,17.8424591.9576468,23.7344673-6.7620776-.2438701-.311755-.58669-.1517665-.8777172-.1614162-4.0023108-.1326648-7.9635522.4073953-11.936965.7471695-.4899336.0418934-.9230049.2295643-1.2853946.574881-2.6456341,2.5211005-5.7259141,4.2986043-9.2138605,5.3789002-.1062548.0329026-.2005176.1045065-.42053.2225431Z"/>
      <path class="st0" d="M370.6784946,49.6754899c4.0959548-8.188446.1612863-19.3256051-7.1038386-25.6923719-.2260231,2.2975466.1112072,4.4990452.2495494,6.6985818.1125236,1.7890058.5109956,3.563905.5650659,5.3516388.0550315,1.8195802.6605151,3.284606,1.8718979,4.6257857,1.1258147,1.2464436,1.8905011,2.7585683,2.6282594,4.2701732.7139958,1.4629209,1.2189414,3.0048201,1.789066,4.7461925Z"/>
      <path class="st0" d="M378.9262696,102.9286857c-3.0304709,1.7644277-5.8844852,3.7774189-8.6899785,5.8733037-1.6054544,1.1993868-2.7713902,2.5756893-3.3671666,4.5775812-.837131,2.8128753-2.4664349,5.2506795-4.3659822,7.4905774-.2004224.2363367-.4806073.4311388-.4920592.8854499,3.2278093-.0889264,5.9929169-1.2997567,8.4873765-3.2496735,4.7788675-3.7356427,6.9415531-8.9984392,8.5251917-14.5961485.0795094-.2810488.1639053-.6136115-.0973816-.9810901Z"/>
      <path class="st0" d="M375.3126046,68.1786692c2.3017597-2.5325,3.2737996-5.3298611,3.7489881-8.3215374,1.0676367-6.7215862-.9116404-12.759879-4.2926944-18.6776331-.6687356,1.5810087-.7890979,3.1107031-1.031832,4.6046706-.5046161,3.1057904-1.2001597,6.183135-1.4037989,9.3351879-.0261939.4054368-.0656842.7995802.1204402,1.1704414,1.8321063,3.6504795,2.6894169,7.5447049,2.8588971,11.8888707Z"/>
    </g>
  </g>
  <g>
    <path class="st0" d="M104.0219322,71.8327771h10.3642578c10.7543945,0,13.7226562,3.6010742,13.7226562,12.6035156v14.2089844c0,9.0019531-2.9682617,12.6025391-13.7226562,12.6025391h-10.3642578v-39.4150391ZM114.5321862,104.5818005c3.309082,0,3.6499023-1.1201172,3.6499023-3.8447266v-18.4912109c0-2.6757812-.3408203-3.7460938-3.6499023-3.7460938h-.8754883v26.0820312h.8754883Z"/>
    <path class="st0" d="M138.2270104,71.8327771h18.4418945v6.4716797h-8.8071289v8.8076172h6.5688477v6.7158203h-6.5688477v10.9970703h8.855957v6.4228516h-18.4907227v-39.4150391Z"/>
    <path class="st0" d="M165.4257408,71.8327771h6.8125l7.2016602,16.8857422v-16.8857422h7.9799805v39.4150391h-6.6176758l-7.1044922-18.5400391v18.5400391h-8.2719727v-39.4150391Z"/>
    <path class="st0" d="M201.3822838,78.9860974h-5.7416992v-7.1533203h21.1181641v7.1533203h-5.6928711v32.2617188h-9.6835938v-32.2617188Z"/>
    <path class="st0" d="M224.9799401,71.8327771h9.6347656v39.4150391h-9.6347656v-39.4150391Z"/>
    <path class="st0" d="M244.4413658,99.0827771l8.1748047-1.0703125c.0488281,5.3525391,1.265625,6.5693359,2.8227539,6.5693359,1.5083008,0,1.6054688-1.4599609,1.6054688-2.3359375,0-3.2119141-1.6054688-5.1582031-4.3793945-7.4941406l-2.4814453-2.0917969c-3.1142578-2.6279297-5.7421875-5.7421875-5.7421875-10.7539062,0-6.9101562,4.4770508-10.6567383,11.5810547-10.6567383,9.0507812,0,9.7324219,7.5424805,9.7807617,11.4838867l-8.3696289.8271484c0-3.40625-.0483398-5.3525391-1.7514648-5.3525391-1.3139648,0-1.800293,1.7998047-1.800293,2.7246094,0,3.0654297,1.7514648,4.671875,4.1845703,6.8125l2.2871094,1.9951172c3.503418,3.0166016,6.2285156,6.4716797,6.2285156,12.0673828,0,5.4990234-4.0390625,10.0732422-10.5595703,10.0732422-7.6396484,0-11.3374023-3.4550781-11.5810547-12.7978516Z"/>
    <path class="st0" d="M279.0356041,78.9860974h-5.7416992v-7.1533203h21.1186523v7.1533203h-5.6933594v32.2617188h-9.6835938v-32.2617188Z"/>
  </g>
  <g>
    <g>
      <path class="st0" d="M69.104705,52.9348279v-14.9013672h-5.3222656v-3.0341797h14.2529297v3.0341797h-5.3095703v14.9013672h-3.6210938Z"/>
      <path class="st0" d="M97.9230644,52.9348279v-17.9355469h7.6220703c1.9165039,0,3.3095703.1611328,4.1782227.4833984s1.5634766.8950195,2.0859375,1.71875c.5214844.8242188.7827148,1.7661133.7827148,2.8261719,0,1.3457031-.3955078,2.4575195-1.1865234,3.3339844-.7915039.8769531-1.9741211,1.4296875-3.5478516,1.6577148.7827148.4570312,1.4291992.9584961,1.9389648,1.5048828s1.1967773,1.5170898,2.0615234,2.9116211l2.1899414,3.4990234h-4.3310547l-2.6181641-3.902832c-.9296875-1.3945312-1.565918-2.2734375-1.9086914-2.6362305-.3422852-.362793-.7055664-.6118164-1.0888672-.746582-.3833008-.1342773-.9907227-.2016602-1.8227539-.2016602h-.7338867v7.4873047h-3.621582ZM101.5446464,42.5847302h2.6791992c1.7373047,0,2.8217773-.0732422,3.2543945-.2202148.4321289-.1469727.7705078-.3994141,1.0151367-.7587891.2451172-.3583984.3671875-.8071289.3671875-1.3457031,0-.6035156-.1611328-1.0908203-.4833984-1.4619141s-.7768555-.6054688-1.3637695-.7036133c-.2939453-.0405273-1.1748047-.0610352-2.6425781-.0610352h-2.8261719v4.5512695Z"/>
      <path class="st0" d="M133.5202324,34.999281h3.621582v9.7143555c0,1.5415039.0444336,2.5405273.1342773,2.9970703.1547852.734375.5239258,1.3237305,1.1074219,1.7680664.5830078.4443359,1.3803711.6665039,2.3916016.6665039,1.027832,0,1.8027344-.2099609,2.324707-.6298828s.8359375-.9360352.9418945-1.5478516c.105957-.6113281.1591797-1.6269531.1591797-3.0458984v-9.9223633h3.6210938v9.4204102c0,2.1533203-.0976562,3.6748047-.293457,4.5634766-.1958008.8891602-.5566406,1.6391602-1.0825195,2.2509766-.5263672.6118164-1.2299805,1.0991211-2.1108398,1.4619141s-2.0307617.5444336-3.449707.5444336c-1.7128906,0-3.0117188-.1977539-3.8969727-.5932617-.8847656-.3955078-1.5839844-.9091797-2.0981445-1.5415039-.5136719-.6318359-.8520508-1.2944336-1.0151367-1.987793-.2368164-1.027832-.3549805-2.5449219-.3549805-4.5512695v-9.5673828Z"/>
      <path class="st0" d="M168.2604667,47.0988904l3.5234375-.3422852c.2119141,1.1826172.6425781,2.0512695,1.2910156,2.605957.6479492.5546875,1.5229492.8320312,2.6240234.8320312,1.1660156,0,2.0449219-.2470703,2.6362305-.7402344.5913086-.4936523.887207-1.0708008.887207-1.7314453,0-.4238281-.1245117-.784668-.3730469-1.0825195-.2490234-.2978516-.6831055-.5566406-1.3032227-.7768555-.4238281-.1469727-1.390625-.4077148-2.8994141-.7832031-1.940918-.480957-3.3032227-1.0722656-4.0859375-1.7739258-1.1010742-.9868164-1.6518555-2.1899414-1.6518555-3.6088867,0-.9135742.2587891-1.7680664.7768555-2.5629883.5180664-.7954102,1.2641602-1.4008789,2.2387695-1.8168945s2.1513672-.6240234,3.5297852-.6240234c2.2509766,0,3.9453125.4936523,5.0830078,1.4804688,1.1381836.9868164,1.7353516,2.3041992,1.7924805,3.9516602l-3.6210938.1586914c-.1552734-.9213867-.487793-1.5839844-.9970703-1.987793-.5097656-.4038086-1.2744141-.6054688-2.2939453-.6054688-1.0522461,0-1.8759766.2158203-2.4716797.6484375-.3833008.2773438-.574707.6484375-.574707,1.1132812,0,.4238281.1791992.7871094.5380859,1.0888672.4570312.3833008,1.565918.7827148,3.3276367,1.1987305s3.0649414.8461914,3.9091797,1.2905273c.8442383.4448242,1.5048828,1.0522461,1.9819336,1.8232422.4770508.7705078.715332,1.7231445.715332,2.8564453,0,1.027832-.2851562,1.9902344-.855957,2.887207-.5712891.8974609-1.378418,1.5644531-2.4223633,2.0004883-1.0444336.4360352-2.3452148.6542969-3.902832.6542969-2.2675781,0-4.0087891-.5239258-5.2241211-1.5717773s-1.9414062-2.5751953-2.1777344-4.5820312Z"/>
      <path class="st0" d="M207.4660331,52.9348279v-14.9013672h-5.3217773v-3.0341797h14.253418v3.0341797h-5.3105469v14.9013672h-3.6210938Z"/>
      <path class="st0" d="M236.2736503,52.9348279v-17.9355469h13.2978516v3.0341797h-9.6767578v3.9760742h9.0039062v3.0219727h-9.0039062v4.8813477h10.0195312v3.0219727h-13.640625Z"/>
      <path class="st0" d="M270.510955,34.999281h6.6191406c1.4921875,0,2.6298828.1142578,3.4130859.3427734,1.0517578.3100586,1.953125.8603516,2.7041016,1.6513672.75.7915039,1.3212891,1.7602539,1.7128906,2.9057617.390625,1.1459961.5869141,2.559082.5869141,4.2392578,0,1.4760742-.1835938,2.7485352-.5507812,3.8168945-.4482422,1.3051758-1.0888672,2.3613281-1.9208984,3.1689453-.6279297.6118164-1.4765625,1.0888672-2.5449219,1.4311523-.7988281.2529297-1.8671875.3793945-3.2050781.3793945h-6.8144531v-17.9355469ZM274.1320488,38.0334607v11.8793945h2.7041016c1.0117188,0,1.7412109-.0566406,2.1894531-.1713867.5878906-.1464844,1.0751953-.3955078,1.4628906-.7460938.3867188-.3505859.703125-.9277344.9472656-1.730957.2451172-.8032227.3671875-1.8984375.3671875-3.2851562,0-1.3862305-.1220703-2.4506836-.3671875-3.1928711-.2441406-.7421875-.5869141-1.3212891-1.0273438-1.7373047s-.9990234-.6972656-1.6757812-.8442383c-.5058594-.1142578-1.4970703-.1713867-2.9726562-.1713867h-1.6279297Z"/>
    </g>
    <path class="st0" d="M300.9234649,40.3381428l3.6299823-1.2099941s5.8987212,1.3612434,9.2262049,6.0499704c0,0,8.0162108-12.4269726,18.4524099-18.162178h2.4199882s-10.8899468,10.2972164-19.0574069,24.9683947c0,0-1.5124926,4.8399764-3.7812315,0,0,0-2.5712374-7.7137123-10.8899468-11.6461931Z"/>
  </g>
  <g>
    <g>
      <path class="st1" d="M335.227602,85.7989141c.0043113-.967566-.0876643-1.8548788-.3328445-2.7149761-.8673423-3.0426562-2.6984642-5.2268121-5.7387676-6.2732876-1.0902027-.3752492-2.2241295-.534817-3.3876362-.3625568-.9604813.1422018-1.856349.4712307-2.7339227.8682607-1.0719782.4849833-2.0655256,1.1201706-3.1264511,1.6265817-.1555518.0742496-.2759646.0731965-.4310005-.0013367-1.2149945-.5841052-2.3649413-1.2922864-3.6008694-1.8391602-2.4093203-1.0660762-4.7790841-.9476832-7.044621.3192434-2.9474739,1.6482778-4.3947642,4.2884126-4.6422846,7.6009033-.1370512,1.8341147.2057089,3.6348483.6046252,5.4168146.5441733,2.430832,1.3356382,4.7844685,2.2920306,7.0829139.8938883,2.1482303,1.8886671,4.2450753,3.2165131,6.1667098.4968277.7190004,1.0316286,1.4098425,1.7641389,1.9094074.4275462.291584.8834788.5147031,1.4332833.3930336.698973-.1546804,1.0735569-.6455326,1.2983757-1.2699056.388187-1.0780909.6821111-2.1856201.9854838-3.2898454.4360373-1.5871015.8404378-3.1857666,1.4829143-4.7060044.3577342-.8464734.7223198-1.6935933,1.3817409-2.3737268.845858-.8724273,2.1657931-.548088,2.6483069.5008372.3964056.8617376.7258859,1.7556779,1.0567589,2.645852.7026566,1.8903995,1.1633976,3.8555956,1.7626687,5.7780795.2153184.6907462.380162,1.4023739.7702772,2.0286976.3200552.5138461,1.1084967.8865751,1.7654578.6525126.707652-.2521213,1.2322755-.7220713,1.7039959-1.2660191,1.1436264-1.3187331,1.9840388-2.8335978,2.7488169-4.3884476,1.4171459-2.8811606,2.5347163-5.875308,3.3082336-8.9950162.4547702-1.8341589.7614666-3.6890743.8147756-5.5095646Z"/>
      <path class="st2" d="M335.227602,85.7989141c-.053309,1.8204903-.3600055,3.6754057-.8147756,5.5095646-.7735173,3.1197082-1.8910877,6.1138557-3.3082336,8.9950162-.7647781,1.5548498-1.6051905,3.0697145-2.7488169,4.3884476-.4717204.5439478-.9963439,1.0138978-1.7039959,1.2660191-.656961.2340626-1.4454026-.1386664-1.7654578-.6525126-.3901152-.6263237-.5549588-1.3379514-.7702772-2.0286976-.5992711-1.9224839-1.0600121-3.88768-1.7626687-5.7780795-.330873-.8901741-.6603533-1.7841144-1.0567589-2.645852-.4825138-1.0489252-1.8024489-1.3732645-2.6483069-.5008372-.6594211.6801335-1.0240067,1.5272534-1.3817409,2.3737268-.6424765,1.5202377-1.046877,3.1189029-1.4829143,4.7060044-.3033727,1.1042253-.5972968,2.2117545-.9854838,3.2898454-.2248188.624373-.5994027,1.1152251-1.2983757,1.2699056-.5498045.1216695-1.0057371-.1014495-1.4332833-.3930336-.7325103-.4995649-1.2673112-1.1904069-1.7641389-1.9094074-1.327846-1.9216344-2.3226248-4.0184794-3.2165131-6.1667098-.9563924-2.2984454-1.7478574-4.6520819-2.2920306-7.0829139-.3989163-1.7819663-.7416764-3.5826999-.6046252-5.4168146.2475204-3.3124907,1.6948106-5.9526254,4.6422846-7.6009033,2.2655368-1.2669266,4.6353006-1.3853196,7.044621-.3192434,1.2359281.5468739,2.3858749,1.2550551,3.6008694,1.8391602.1550359.0745332.2754487.0755863.4310005.0013367,1.0609255-.5064112,2.0544729-1.1415984,3.1264511-1.6265817.8775737-.39703,1.7734414-.7260589,2.7339227-.8682607,1.1635066-.1722603,2.2974334-.0126924,3.3876362.3625568,3.0403034,1.0464755,4.8714254,3.2306313,5.7387676,6.2732876.2451801.8600973.3371558,1.7474101.3328445,2.7149761ZM307.1142361,92.6100692c-.0216457-.0102011-.0432916-.0204023-.0649373-.0306034.0009272.0252623.0018545.0505265.0027817.0757888.1166204.5395219.3260906,1.0474011.5107987,1.5653912.3503383.9824768.7146664,1.9587048,1.1196993,2.9196329.8363351,1.9841776,1.7677337,3.9192626,2.9990005,5.6948654.3507114.5057611.7265479.9956173,1.2116985,1.3847136.2482802.1991235.3036227.1820457.3990696-.1050541.1547728-.4655523.3105032-.9311365.4493077-1.4015827.5583859-1.8925044,1.0046593-3.8180235,1.6676409-5.6796839.3925725-1.1023497.8756586-2.1547836,1.550971-3.1237291.9060005-1.2999433,2.9644229-2.0176592,4.4948549-1.1106019.6228651.3691601,1.1840183.8627975,1.4389487,1.5173529.6084426,1.5622282,1.2142427,3.1289218,1.6857508,4.7426199.4987874,1.7070514.9309936,3.4341217,1.5318378,5.1113196.0930995.2598755.1900519.2532339.3619093.1118612.1420559-.1168584.2848241-.2348726.4128108-.3664463.4524002-.4650806.8336692-.9879157,1.1815526-1.5324723,1.8423457-2.8839007,3.1368705-6.0163913,4.154709-9.2686984.6430272-2.0546732,1.1215604-4.1443098,1.3202481-6.298245.1847989-2.0033846-.1124799-3.8894024-1.2194393-5.5889054-1.3890358-2.1325699-3.3627003-3.268525-5.9311781-3.2012469-1.6395252.0429455-3.0607137.7616743-4.36285,1.7064688-.7793096.5654448-1.5299772,1.1726667-2.3872797,1.6180723-1.3458435.699224-2.796905.9724241-4.3001882.9563072-.6636301-.0071152-1.328648-.0808349-1.9768699-.2505112-.1480624-.0387566-.2899144-.1001222-.2870098-.2682805.0032119-.1860023.1665622-.2132224.3143418-.2226967.6343914-.0406712,1.2648821-.1162039,1.893936-.2052154,1.0343678-.1463652,2.0536929-.3509238,3.0114707-.7891328.0881445-.0403282.2276134-.0528837.2287617-.1640641.0008598-.0830478-.1214399-.1264976-.1996142-.1756014-.971067-.6099534-1.9825137-1.14497-3.0278759-1.6147029-2.3157867-1.0405974-4.5134167-.7494425-6.5114509.7422492-1.9016988,1.4197702-2.8112175,3.4201778-2.9809703,5.7620162-.0759353,1.0475721.0756604,2.0864211.2003051,3.1254525.093167.7766309.3893153,1.4956971.5816593,2.2438341.0149034.0579678.0534507.1102863.0834103.1638893.4427961.7922267,1.0679556,1.4209495,1.7680156,1.9852187.4805921.387373,1.0729245.5506157,1.6108325.8226169.1790071.0905154.359311.1661915.4285756.398354-.4897725.0003439-.9395434-.1005117-1.3894704-.19762-.7580038-.1635999-1.4115079-.5249456-1.9757646-1.0529301Z"/>
      <path class="st1" d="M307.1142385,92.6100674c.5642543.5279864,1.2177584.8893321,1.9757622,1.052932.449927.0971082.8996979.1979639,1.3894704.19762-.0692646-.2321625-.2495685-.3078386-.4285756-.398354-.537908-.2720011-1.1302404-.4352439-1.6108325-.8226169-.70006-.5642693-1.3252195-1.192992-1.7680156-1.9852187-.0299597-.053603-.068507-.1059215-.0834103-.1638893-.192344-.748137-.4884924-1.4672032-.5816593-2.2438341-.1246447-1.0390313-.2762404-2.0778804-.2003051-3.1254525.1697528-2.3418383,1.0792715-4.342246,2.9809703-5.7620162,1.9980342-1.4916917,4.1956643-1.7828467,6.5114509-.7422492,1.0453623.4697329,2.056809,1.0047495,3.0278759,1.6147029.0781743.0491038.200474.0925536.1996142.1756014-.0011483.1111804-.1406172.1237359-.2287617.1640641-.9577778.4382091-1.9771029.6427676-3.0114707.7891328-.6290539.0890115-1.2595446.1645442-1.893936.2052154-.1477796.0094743-.3111299.0366944-.3143418.2226967-.0029046.1681582.1389474.2295239.2870098.2682805.6482218.1696763,1.3132398.2433959,1.9768699.2505112,1.5032832.0161169,2.9543446-.2570833,4.3001882-.9563072.8573026-.4454056,1.6079702-1.0526275,2.3872797-1.6180723,1.3021364-.9447945,2.7233248-1.6635233,4.36285-1.7064688,2.5684778-.0672781,4.5421423,1.068677,5.9311781,3.2012469,1.1069594,1.699503,1.4042382,3.5855208,1.2194393,5.5889054-.1986877,2.1539351-.6772209,4.2435718-1.3202481,6.298245-1.0178385,3.2523071-2.3123633,6.3847978-4.154709,9.2686984-.3478834.5445567-.7291523,1.0673918-1.1815526,1.5324723-.1279867.1315737-.2707549.2495879-.4128108.3664463-.1718574.1413727-.2688097.1480144-.3619093-.1118612-.6008442-1.6771978-1.0330503-3.4042681-1.5318378-5.1113196-.471508-1.6136981-1.0773082-3.1803917-1.6857508-4.7426199-.2549304-.6545554-.8160837-1.1481928-1.4389487-1.5173529-1.530432-.9070573-3.5888544-.1893414-4.4948549,1.1106019-.6753124.9689454-1.1583984,2.0213794-1.550971,3.1237291-.6629817,1.8616604-1.1092551,3.7871795-1.6676409,5.6796839-.1388045.4704461-.2945349.9360304-.4493077,1.4015827-.0954469.2870999-.1507894.3041776-.3990696.1050541-.4851506-.3890963-.8609871-.8789525-1.2116985-1.3847136-1.2312668-1.7756028-2.1626654-3.7106878-2.9990005-5.6948654-.4050329-.9609281-.769361-1.9371561-1.1196993-2.9196329-.184708-.5179901-.3941783-1.0258693-.5107987-1.5653912.0207194-.015063.0414388-.0301242.0621579-.0451872Z"/>
      <path class="st1" d="M307.0520806,92.6552546c-.0009272-.0252623-.0018545-.0505265-.0027817-.0757888.0216457.0102011.0432916.0204023.0649385.0306016-.020718.015063-.0414374.0301242-.0621567.0451872Z"/>
    </g>
    <g>
      <path class="st1" d="M95.4752136,85.7989141c.0043113-.967566-.0876643-1.8548788-.3328445-2.7149761-.8673423-3.0426562-2.6984642-5.2268121-5.7387676-6.2732876-1.0902027-.3752492-2.2241295-.534817-3.3876362-.3625568-.9604813.1422018-1.856349.4712307-2.7339227.8682607-1.0719782.4849833-2.0655256,1.1201706-3.1264511,1.6265817-.1555518.0742496-.2759646.0731965-.4310005-.0013367-1.2149945-.5841052-2.3649413-1.2922864-3.6008694-1.8391602-2.4093203-1.0660762-4.7790841-.9476832-7.044621.3192434-2.9474739,1.6482778-4.3947642,4.2884126-4.6422846,7.6009033-.1370512,1.8341147.2057089,3.6348483.6046252,5.4168146.5441733,2.430832,1.3356382,4.7844685,2.2920306,7.0829139.8938883,2.1482303,1.8886671,4.2450753,3.2165131,6.1667098.4968277.7190004,1.0316286,1.4098425,1.7641389,1.9094074.4275462.291584.8834788.5147031,1.4332833.3930336.698973-.1546804,1.0735569-.6455326,1.2983757-1.2699056.388187-1.0780909.6821111-2.1856201.9854838-3.2898454.4360373-1.5871015.8404378-3.1857666,1.4829143-4.7060044.3577342-.8464734.7223198-1.6935933,1.3817409-2.3737268.845858-.8724273,2.1657931-.548088,2.6483069.5008372.3964056.8617376.7258859,1.7556779,1.0567589,2.645852.7026566,1.8903995,1.1633976,3.8555956,1.7626687,5.7780795.2153184.6907462.380162,1.4023739.7702772,2.0286976.3200552.5138461,1.1084967.8865751,1.7654578.6525126.707652-.2521213,1.2322755-.7220713,1.7039959-1.2660191,1.1436264-1.3187331,1.9840388-2.8335978,2.7488169-4.3884476,1.4171459-2.8811606,2.5347163-5.875308,3.3082336-8.9950162.4547702-1.8341589.7614666-3.6890743.8147756-5.5095646Z"/>
      <path class="st2" d="M95.4752136,85.7989141c-.053309,1.8204903-.3600055,3.6754057-.8147756,5.5095646-.7735173,3.1197082-1.8910877,6.1138557-3.3082336,8.9950162-.7647781,1.5548498-1.6051905,3.0697145-2.7488169,4.3884476-.4717204.5439478-.9963439,1.0138978-1.7039959,1.2660191-.656961.2340626-1.4454026-.1386664-1.7654578-.6525126-.3901152-.6263237-.5549588-1.3379514-.7702772-2.0286976-.5992711-1.9224839-1.0600121-3.88768-1.7626687-5.7780795-.330873-.8901741-.6603533-1.7841144-1.0567589-2.645852-.4825138-1.0489252-1.8024489-1.3732645-2.6483069-.5008372-.6594211.6801335-1.0240067,1.5272534-1.3817409,2.3737268-.6424765,1.5202377-1.046877,3.1189029-1.4829143,4.7060044-.3033727,1.1042253-.5972968,2.2117545-.9854838,3.2898454-.2248188.624373-.5994027,1.1152251-1.2983757,1.2699056-.5498045.1216695-1.0057371-.1014495-1.4332833-.3930336-.7325103-.4995649-1.2673112-1.1904069-1.7641389-1.9094074-1.327846-1.9216344-2.3226248-4.0184794-3.2165131-6.1667098-.9563924-2.2984454-1.7478574-4.6520819-2.2920306-7.0829139-.3989163-1.7819663-.7416764-3.5826999-.6046252-5.4168146.2475204-3.3124907,1.6948106-5.9526254,4.6422846-7.6009033,2.2655368-1.2669266,4.6353006-1.3853196,7.044621-.3192434,1.2359281.5468739,2.3858749,1.2550551,3.6008694,1.8391602.1550359.0745332.2754487.0755863.4310005.0013367,1.0609255-.5064112,2.0544729-1.1415984,3.1264511-1.6265817.8775737-.39703,1.7734414-.7260589,2.7339227-.8682607,1.1635066-.1722603,2.2974334-.0126924,3.3876362.3625568,3.0403034,1.0464755,4.8714254,3.2306313,5.7387676,6.2732876.2451801.8600973.3371558,1.7474101.3328445,2.7149761ZM67.3618477,92.6100692c-.0216457-.0102011-.0432916-.0204023-.0649373-.0306034.0009272.0252623.0018545.0505265.0027817.0757888.1166204.5395219.3260906,1.0474011.5107987,1.5653912.3503383.9824768.7146664,1.9587048,1.1196993,2.9196329.8363351,1.9841776,1.7677337,3.9192626,2.9990005,5.6948654.3507114.5057611.7265479.9956173,1.2116985,1.3847136.2482802.1991235.3036227.1820457.3990696-.1050541.1547728-.4655523.3105032-.9311365.4493077-1.4015827.5583859-1.8925044,1.0046593-3.8180235,1.6676409-5.6796839.3925725-1.1023497.8756586-2.1547836,1.550971-3.1237291.9060005-1.2999433,2.9644229-2.0176592,4.4948549-1.1106019.6228651.3691601,1.1840183.8627975,1.4389487,1.5173529.6084426,1.5622282,1.2142427,3.1289218,1.6857508,4.7426199.4987874,1.7070514.9309936,3.4341217,1.5318378,5.1113196.0930995.2598755.1900519.2532339.3619093.1118612.1420559-.1168584.2848241-.2348726.4128108-.3664463.4524002-.4650806.8336692-.9879157,1.1815526-1.5324723,1.8423457-2.8839007,3.1368705-6.0163913,4.154709-9.2686984.6430272-2.0546732,1.1215604-4.1443098,1.3202481-6.298245.1847989-2.0033846-.1124799-3.8894024-1.2194393-5.5889054-1.3890358-2.1325699-3.3627003-3.268525-5.9311781-3.2012469-1.6395252.0429455-3.0607137.7616743-4.36285,1.7064688-.7793096.5654448-1.5299772,1.1726667-2.3872797,1.6180723-1.3458435.699224-2.796905.9724241-4.3001882.9563072-.6636301-.0071152-1.328648-.0808349-1.9768699-.2505112-.1480624-.0387566-.2899144-.1001222-.2870098-.2682805.0032119-.1860023.1665622-.2132224.3143418-.2226967.6343914-.0406712,1.2648821-.1162039,1.893936-.2052154,1.0343678-.1463652,2.0536929-.3509238,3.0114707-.7891328.0881445-.0403282.2276134-.0528837.2287617-.1640641.0008598-.0830478-.1214399-.1264976-.1996142-.1756014-.971067-.6099534-1.9825137-1.14497-3.0278759-1.6147029-2.3157867-1.0405974-4.5134167-.7494425-6.5114509.7422492-1.9016988,1.4197702-2.8112175,3.4201778-2.9809703,5.7620162-.0759353,1.0475721.0756604,2.0864211.2003051,3.1254525.093167.7766309.3893153,1.4956971.5816593,2.2438341.0149034.0579678.0534507.1102863.0834103.1638893.4427961.7922267,1.0679556,1.4209495,1.7680156,1.9852187.4805921.387373,1.0729245.5506157,1.6108325.8226169.1790071.0905154.359311.1661915.4285756.398354-.4897725.0003439-.9395434-.1005117-1.3894704-.19762-.7580038-.1635999-1.4115079-.5249456-1.9757646-1.0529301Z"/>
      <path class="st1" d="M67.36185,92.6100674c.5642543.5279864,1.2177584.8893321,1.9757622,1.052932.449927.0971082.8996979.1979639,1.3894704.19762-.0692646-.2321625-.2495685-.3078386-.4285756-.398354-.537908-.2720011-1.1302404-.4352439-1.6108325-.8226169-.70006-.5642693-1.3252195-1.192992-1.7680156-1.9852187-.0299597-.053603-.068507-.1059215-.0834103-.1638893-.192344-.748137-.4884924-1.4672032-.5816593-2.2438341-.1246447-1.0390313-.2762404-2.0778804-.2003051-3.1254525.1697528-2.3418383,1.0792715-4.342246,2.9809703-5.7620162,1.9980342-1.4916917,4.1956643-1.7828467,6.5114509-.7422492,1.0453623.4697329,2.056809,1.0047495,3.0278759,1.6147029.0781743.0491038.200474.0925536.1996142.1756014-.0011483.1111804-.1406172.1237359-.2287617.1640641-.9577778.4382091-1.9771029.6427676-3.0114707.7891328-.6290539.0890115-1.2595446.1645442-1.893936.2052154-.1477796.0094743-.3111299.0366944-.3143418.2226967-.0029046.1681582.1389474.2295239.2870098.2682805.6482218.1696763,1.3132398.2433959,1.9768699.2505112,1.5032832.0161169,2.9543446-.2570833,4.3001882-.9563072.8573026-.4454056,1.6079702-1.0526275,2.3872797-1.6180723,1.3021364-.9447945,2.7233248-1.6635233,4.36285-1.7064688,2.5684778-.0672781,4.5421423,1.068677,5.9311781,3.2012469,1.1069594,1.699503,1.4042382,3.5855208,1.2194393,5.5889054-.1986877,2.1539351-.6772209,4.2435718-1.3202481,6.298245-1.0178385,3.2523071-2.3123633,6.3847978-4.154709,9.2686984-.3478834.5445567-.7291523,1.0673918-1.1815526,1.5324723-.1279867.1315737-.2707549.2495879-.4128108.3664463-.1718574.1413727-.2688097.1480144-.3619093-.1118612-.6008442-1.6771978-1.0330503-3.4042681-1.5318378-5.1113196-.471508-1.6136981-1.0773082-3.1803917-1.6857508-4.7426199-.2549304-.6545554-.8160837-1.1481928-1.4389487-1.5173529-1.530432-.9070573-3.5888544-.1893414-4.4948549,1.1106019-.6753124.9689454-1.1583984,2.0213794-1.550971,3.1237291-.6629817,1.8616604-1.1092551,3.7871795-1.6676409,5.6796839-.1388045.4704461-.2945349.9360304-.4493077,1.4015827-.0954469.2870999-.1507894.3041776-.3990696.1050541-.4851506-.3890963-.8609871-.8789525-1.2116985-1.3847136-1.2312668-1.7756028-2.1626654-3.7106878-2.9990005-5.6948654-.4050329-.9609281-.769361-1.9371561-1.1196993-2.9196329-.184708-.5179901-.3941783-1.0258693-.5107987-1.5653912.0207194-.015063.0414388-.0301242.0621579-.0451872Z"/>
      <path class="st1" d="M67.2996921,92.6552546c-.0009272-.0252623-.0018545-.0505265-.0027817-.0757888.0216457.0102011.0432916.0204023.0649385.0306016-.020718.015063-.0414374.0301242-.0621567.0451872Z"/>
    </g>
  </g>
  <rect class="st0" x="57.7396838" y="59.6978924" width="282.955122" height="1.4634146"/>
  <g>
    <polygon class="st0" points="199.947181 121.9686027 202.7389246 127.6252929 208.9814529 128.5323854 204.464317 132.9355047 205.5306681 139.1528089 199.947181 136.217396 194.363694 139.1528089 195.4300451 132.9355047 190.9129092 128.5323854 197.1554375 127.6252929 199.947181 121.9686027"/>
    <polygon class="st0" points="224.9214266 125.0618969 226.7080979 128.6820884 230.7032164 129.2626131 227.8123215 132.0805392 228.4947692 136.0595146 224.9214266 134.1808973 221.348084 136.0595146 222.0305317 132.0805392 219.1396368 129.2626131 223.1347553 128.6820884 224.9214266 125.0618969"/>
    <polygon class="st0" points="173.8557853 125.0618969 175.6424566 128.6820884 179.6375751 129.2626131 176.7466802 132.0805392 177.4291279 136.0595146 173.8557853 134.1808973 170.2824427 136.0595146 170.9648904 132.0805392 168.0739955 129.2626131 172.069114 128.6820884 173.8557853 125.0618969"/>
    <polygon class="st0" points="155.0060519 126.9752734 156.1710295 129.3357759 158.7759986 129.7143 156.8910253 131.5516949 157.3360071 134.1461381 155.0060519 132.9212082 152.6760968 134.1461381 153.1210786 131.5516949 151.2361053 129.7143 153.8410744 129.3357759 155.0060519 126.9752734"/>
    <polygon class="st0" points="243.2570763 126.9752734 244.4220539 129.3357759 247.027023 129.7143 245.1420497 131.5516949 245.5870315 134.1461381 243.2570763 132.9212082 240.9271212 134.1461381 241.372103 131.5516949 239.4871297 129.7143 242.0920988 129.3357759 243.2570763 126.9752734"/>
    <rect class="st0" x="257.1373345" y="129.0687413" width="44.8966377" height="1.4919645"/>
    <rect class="st0" x="96.4005173" y="129.0687413" width="44.8966377" height="1.4919645"/>
  </g>
  <metadata>
    <sfw xmlns="http://ns.adobe.com/SaveForWeb/1.0/">
      <slices/>
      <sliceSourceBounds x="-631.12" y="-905.4" width="1856.32" height="656.61" bottomLeftOrigin="true"/>
    </sfw>
  </metadata>
</svg>